HIERARCHY
ROOT Hips
{
	OFFSET 56.665199 -22.470316 94.160400
	CHANNELS 6 Xposition Yposition Zposition Xrotation Yrotation Zrotation
	JOINT spine
	{
		OFFSET 0.000000 -0.429888 7.475601
		CHANNELS 3 Xrotation Yrotation Zrotation
		JOINT spine1
		{
			OFFSET 0.000000 -0.000002 9.923012
			CHANNELS 3 Xrotation Yrotation Zrotation
			JOINT spine2
			{
				OFFSET 0.000000 0.000000 9.508041
				CHANNELS 3 Xrotation Yrotation Zrotation
				JOINT Neck
				{
					OFFSET 0.000000 -1.163843 24.411095
					CHANNELS 3 Xrotation Yrotation Zrotation
					JOINT Head
					{
						OFFSET 0.000000 -0.000002 7.375229
						CHANNELS 3 Xrotation Yrotation Zrotation
						End Site
						{
							OFFSET 0.000000 5.887405 17.852203
						}
					}
				}
				JOINT RightShoulder
				{
					OFFSET -4.003559 0.557467 10.267906
					CHANNELS 3 Xrotation Yrotation Zrotation
					JOINT RightArm
					{
						OFFSET 0.000000 -0.000002 13.467300
						CHANNELS 3 Xrotation Yrotation Zrotation
						JOINT RightArmRoll
						{
							OFFSET 0.000000 -0.000002 6.798584
							CHANNELS 3 Xrotation Yrotation Zrotation
							JOINT RightForeArm
							{
								OFFSET 0.000000 -0.000004 19.801804
								CHANNELS 3 Xrotation Yrotation Zrotation
								JOINT RightForeArmRoll
								{
									OFFSET 0.000000 0.000000 7.629044
									CHANNELS 3 Xrotation Yrotation Zrotation
									JOINT RightHand
									{
										OFFSET 0.000000 -0.000004 15.309799
										CHANNELS 3 Xrotation Yrotation Zrotation
										End Site
										{
											OFFSET 0.000000 0.000000 0.100006
										}
									}
								}
							}
						}
					}
				}
				JOINT LeftShoulder
				{
					OFFSET 4.003559 0.557467 10.267906
					CHANNELS 3 Xrotation Yrotation Zrotation
					JOINT LeftArm
					{
						OFFSET 0.000000 -0.000002 13.467300
						CHANNELS 3 Xrotation Yrotation Zrotation
						JOINT LeftArmRoll
						{
							OFFSET 0.000000 -0.000002 6.798584
							CHANNELS 3 Xrotation Yrotation Zrotation
							JOINT LeftForeArm
							{
								OFFSET 0.000000 -0.000004 19.801804
								CHANNELS 3 Xrotation Yrotation Zrotation
								JOINT LeftForeArmRoll
								{
									OFFSET 0.000000 0.000000 7.629044
									CHANNELS 3 Xrotation Yrotation Zrotation
									JOINT LeftHand
									{
										OFFSET 0.000000 -0.000004 15.309799
										CHANNELS 3 Xrotation Yrotation Zrotation
										End Site
										{
											OFFSET 0.000000 0.000000 0.100006
										}
									}
								}
							}
						}
					}
				}
			}
		}
	}
	JOINT RightUpLeg
	{
		OFFSET -6.626091 1.019270 -1.215050
		CHANNELS 3 Xrotation Yrotation Zrotation
		JOINT RightUpLegRoll
		{
			OFFSET 0.000000 -0.000002 17.951698
			CHANNELS 3 Xrotation Yrotation Zrotation
			JOINT RightLeg
			{
				OFFSET 0.000000 0.000002 -22.230400
				CHANNELS 3 Xrotation Yrotation Zrotation
				JOINT RightLegRoll
				{
					OFFSET 0.000000 -0.000002 22.303200
					CHANNELS 3 Xrotation Yrotation Zrotation
					JOINT RightFoot
					{
						OFFSET 0.000000 -0.000004 18.563599
						CHANNELS 3 Xrotation Yrotation Zrotation
						JOINT RightToeBase
						{
							OFFSET 0.000000 -0.000002 15.518295
							CHANNELS 3 Xrotation Yrotation Zrotation
							End Site
							{
								OFFSET 0.006577 0.866261 7.515381
							}
						}
					}
				}
			}
		}
	}
	JOINT LeftUpLeg
	{
		OFFSET 6.626091 1.019270 -1.215050
		CHANNELS 3 Xrotation Yrotation Zrotation
		JOINT LeftUpLegRoll
		{
			OFFSET 0.000000 -0.000002 17.951797
			CHANNELS 3 Xrotation Yrotation Zrotation
			JOINT LeftLeg
			{
				OFFSET 0.000000 -0.000004 22.230293
				CHANNELS 3 Xrotation Yrotation Zrotation
				JOINT LeftLegRoll
				{
					OFFSET 0.000000 -0.000004 22.509308
					CHANNELS 3 Xrotation Yrotation Zrotation
					JOINT LeftFoot
					{
						OFFSET 0.000000 -0.000004 18.357498
						CHANNELS 3 Xrotation Yrotation Zrotation
						JOINT LeftToeBase
						{
							OFFSET 0.000000 -0.000002 15.518295
							CHANNELS 3 Xrotation Yrotation Zrotation
							End Site
							{
								OFFSET -0.029476 0.866261 7.515396
							}
						}
					}
				}
			}
		}
	}
}
MOTION
Frames: 11
Frame Time: 0.041667
51.616798 14.233587 57.834801 -10.038164 8.879726 -2.074790 -0.411000 -0.791731 -2.851000 3.123787 -1.598462 -5.710357 4.765751 -1.666650 -5.690901 35.350593 23.010875 3.836758 -18.845808 -18.450615 6.078415 52.420261 -80.466520 51.776597 94.940552 -61.538782 110.391758 0.000004 -0.000007 -0.000014 0.070731 -9.591164 -0.908008 0.000006 0.000004 -3.009828 -5.000251 -7.998823 0.000177 -50.119563 79.059043 55.316524 47.980522 79.190948 -72.080100 -0.000001 -0.000002 -0.000001 13.236364 5.989712 0.541561 0.000003 0.000012 3.008529 -5.000184 7.999243 -0.000084 -74.078306 168.338195 11.911724 179.999964 0.000005 -2.352995 95.011121 1.126596 -2.837296 0.000001 0.000002 1.976922 63.835761 7.200601 1.749054 25.456894 -7.364424 -0.000008 -76.917895 165.950374 -2.259764 -0.000020 -0.000004 -1.232670 -87.142033 -4.960249 -0.122089 0.000001 0.000003 -1.942981 62.406564 -7.543616 -1.087850 28.254363 7.440590 1.626590 
51.623203 14.232882 57.828003 -10.036945 8.878536 -2.069912 -0.408288 -0.791727 -2.847491 3.130689 -1.598213 -5.702527 4.772662 -1.666304 -5.683076 35.250002 22.981840 3.853042 -18.743335 -18.444618 6.087400 52.290214 -80.443086 51.651458 94.986403 -61.529991 110.445866 -0.000002 -0.000008 -0.000013 0.070747 -9.580174 -0.907099 0.000005 0.000004 -3.009829 -5.000247 -7.998823 0.000179 -50.050052 79.047384 55.245428 48.150976 79.183271 -72.237030 0.000001 -0.000002 -0.000001 13.206937 5.991287 0.541434 0.000004 0.000011 3.008529 -5.000187 7.999243 -0.000084 -74.087868 168.340722 11.913277 179.999964 0.000005 -2.352996 95.009291 1.128846 -2.837379 0.000001 0.000002 1.977040 63.839183 7.200580 1.749122 25.456890 -7.364422 -0.000008 -76.927635 165.955046 -2.262908 -0.000020 -0.000006 -1.232601 -87.145304 -4.961440 -0.122902 0.000001 0.000003 -1.943050 62.397166 -7.540980 -1.094456 28.257089 7.440594 1.628401 
51.617008 14.237776 57.830002 -10.035025 8.877475 -2.066223 -0.405699 -0.791688 -2.844167 3.137412 -1.597853 -5.695041 4.779394 -1.665860 -5.675598 35.149639 22.954362 3.869854 -18.640652 -18.439329 6.097268 52.163582 -80.419166 51.529942 95.034337 -61.520579 110.500781 0.000003 -0.000008 -0.000013 0.070771 -9.569952 -0.906061 0.000006 0.000005 -3.009828 -5.000250 -7.998823 0.000178 -49.983099 79.033949 55.177369 48.322851 79.176195 -72.395142 0.000002 -0.000002 -0.000001 13.179622 5.993071 0.541253 -0.000001 0.000012 3.008529 -5.000185 7.999242 -0.000085 -74.098147 168.342088 11.914642 179.999964 0.000005 -2.352995 95.007255 1.130586 -2.838429 0.000002 0.000001 1.977130 63.842509 7.200583 1.749203 25.456897 -7.364423 -0.000009 -76.938331 165.957846 -2.266038 -0.000020 -0.000004 -1.232512 -87.149293 -4.962344 -0.123552 0.000001 0.000003 -1.943170 62.387979 -7.538389 -1.100958 28.260123 7.440596 1.630395 
51.623997 14.208883 57.802803 -10.032612 8.876516 -2.063375 -0.403198 -0.791621 -2.840961 3.143983 -1.597423 -5.687779 4.785975 -1.665345 -5.668347 35.049413 22.928189 3.887098 -18.537714 -18.434476 6.107933 52.039717 -80.394919 51.411274 95.083986 -61.510655 110.556577 -0.000001 -0.000007 -0.000014 0.070799 -9.560283 -0.904928 0.000001 0.000004 -3.009829 -5.000245 -7.998823 0.000181 -49.918359 79.019285 55.111796 48.495709 79.169508 -72.553903 0.000001 -0.000001 -0.000000 13.153923 5.995013 0.541040 0.000003 0.000011 3.008529 -5.000185 7.999243 -0.000084 -74.108925 168.342580 11.916023 179.999964 0.000005 -2.354007 95.005151 1.132225 -2.837473 0.000002 0.000002 1.977220 63.845733 7.200566 1.749385 25.456899 -7.364423 -0.000008 -76.949642 165.959376 -2.269255 -0.000020 -0.000005 -1.232390 -87.153822 -4.962974 -0.124129 0.000001 0.000004 -1.943310 62.379107 -7.535813 -1.107444 28.263466 7.440597 1.632504 
51.620705 14.217192 57.804905 -10.029909 8.875613 -2.060992 -0.400746 -0.791542 -2.837826 3.150494 -1.596943 -5.680655 4.792488 -1.664781 -5.661226 34.949224 22.902569 3.904493 -18.434815 -18.429928 6.118834 51.917856 -80.370508 51.294673 95.134481 -61.500567 110.612748 0.000001 -0.000007 -0.000013 0.070833 -9.550922 -0.903746 0.000006 0.000005 -3.009830 -5.000250 -7.998823 0.000179 -49.854835 79.003931 55.047633 48.668636 79.162937 -72.712766 0.000001 -0.000003 -0.000002 13.129025 5.997038 0.540801 0.000003 0.000011 3.008530 -5.000187 7.999242 -0.000085 -74.119908 168.342812 11.916808 179.999964 0.000005 -2.354007 95.002973 1.133655 -2.838522 0.000001 0.000002 1.977290 63.848854 7.200572 1.749480 25.456897 -7.364423 -0.000008 -76.961301 165.960346 -2.272885 -0.000020 -0.000005 -1.232260 -87.158562 -4.963612 -0.124723 0.000001 0.000004 -1.943470 62.370248 -7.533235 -1.113825 28.266798 7.440605 1.634705 
51.611897 14.246576 57.816505 -10.027140 8.874719 -2.058737 -0.398306 -0.791457 -2.834713 3.156976 -1.596455 -5.673561 4.798979 -1.664219 -5.654141 34.849196 22.877211 3.921752 -18.331830 -18.425513 6.129860 51.796787 -80.346001 51.178911 95.185086 -61.490342 110.668865 0.000004 -0.000008 -0.000014 0.070864 -9.541634 -0.902546 0.000007 0.000004 -3.009830 -5.000252 -7.998823 0.000177 -49.791666 78.988365 54.983856 48.841347 79.156285 -72.871220 -0.000001 -0.000002 -0.000001 13.104333 5.999087 0.540563 0.000003 0.000011 3.008529 -5.000184 7.999242 -0.000085 -74.130891 168.343044 11.917083 179.999964 0.000005 -2.354006 95.000807 1.135091 -2.838565 0.000002 0.000002 1.977372 63.851976 7.200579 1.749674 25.456895 -7.364424 -0.000008 -76.973049 165.960934 -2.276051 -0.000020 -0.000005 -1.232129 -87.163432 -4.964091 -0.125222 0.000000 0.000004 -1.943630 62.361382 -7.530657 -1.120306 28.270134 7.440624 1.636919 
51.613800 14.240084 57.806202 -10.024516 8.873807 -2.056245 -0.395837 -0.791381 -2.831558 3.163498 -1.595985 -5.666403 4.805510 -1.663664 -5.646987 34.749130 22.851450 3.938968 -18.228959 -18.420918 6.140753 51.675955 -80.321542 51.063307 95.235336 -61.480213 110.724873 0.000004 -0.000007 -0.000012 0.070894 -9.532194 -0.901370 0.000007 0.000006 -3.009827 -5.000253 -7.998823 0.000178 -49.727944 78.973092 54.919424 49.014021 79.149496 -73.029851 -0.000000 -0.000001 -0.000001 13.079233 6.001097 0.540344 0.000004 0.000011 3.008530 -5.000189 7.999243 -0.000085 -74.141867 168.343276 11.918150 179.999964 0.000006 -2.354006 94.998615 1.136607 -2.837612 0.000001 0.000001 1.977451 63.855199 7.200561 1.749755 25.456899 -7.364421 -0.000008 -76.984695 165.961890 -2.279193 -0.000020 -0.000004 -1.231999 -87.168131 -4.964695 -0.125805 0.000001 0.000004 -1.943780 62.352517 -7.528071 -1.126688 28.273573 7.440625 1.639077 
51.612206 14.227781 57.792004 -10.022238 8.872824 -2.053158 -0.393314 -0.791322 -2.828322 3.170122 -1.595565 -5.659082 4.812141 -1.663159 -5.639676 34.648942 22.824961 3.955690 -18.126065 -18.416065 6.151184 51.554090 -80.297220 50.946603 95.284281 -61.470323 110.780204 0.000005 -0.000008 -0.000013 0.070922 -9.522365 -0.900266 0.000009 0.000004 -3.009832 -5.000252 -7.998821 0.000177 -49.663508 78.958763 54.854079 49.185917 79.142283 -73.187868 0.000000 -0.000002 -0.000003 13.053033 6.003005 0.540151 0.000004 0.000011 3.008529 -5.000186 7.999241 -0.000085 -74.152447 168.344082 11.919271 179.999964 0.000005 -2.355003 94.996498 1.138239 -2.838659 0.000001 0.000002 1.977530 63.858430 7.200589 1.749848 25.456897 -7.364422 -0.000008 -76.995896 165.963843 -2.282376 -0.000020 -0.000005 -1.231892 -87.172489 -4.965449 -0.126475 0.000001 0.000003 -1.943918 62.343446 -7.525490 -1.133181 28.276707 7.440641 1.641168 
51.611595 14.233789 57.788898 -10.020528 8.871727 -2.049111 -0.390686 -0.791288 -2.824935 3.176893 -1.595226 -5.651491 4.818923 -1.662734 -5.632082 34.548651 22.797112 3.971764 -18.023443 -18.410637 6.160840 51.430529 -80.273178 50.828072 95.331443 -61.460904 110.834784 0.000005 -0.000007 -0.000013 0.070943 -9.511925 -0.899267 0.000005 0.000006 -3.009829 -5.000248 -7.998823 0.000179 -49.596701 78.945744 54.786027 49.355985 79.134394 -73.344333 -0.000000 -0.000002 -0.000002 13.025114 6.004733 0.539998 0.000002 0.000012 3.008529 -5.000185 7.999243 -0.000083 -74.162515 168.345735 11.920844 179.999964 0.000005 -2.355003 94.994524 1.140171 -2.838724 0.000001 0.000002 1.977641 63.861763 7.200589 1.749927 25.456894 -7.364422 -0.000008 -77.006230 165.967272 -2.285788 -0.000020 -0.000005 -1.231811 -87.176259 -4.966435 -0.127223 0.000001 0.000004 -1.944020 62.334260 -7.522883 -1.139678 28.279741 7.440640 1.643093 
51.608601 14.269384 57.799202 -10.019584 8.870470 -2.043761 -0.387925 -0.791298 -2.821357 3.183874 -1.595005 -5.643528 4.825926 -1.662419 -5.624139 34.448261 22.767382 3.987105 -17.920975 -18.404544 6.169386 51.304129 -80.249491 50.706518 95.376161 -61.452182 110.888265 0.000003 -0.000008 -0.000012 0.070951 -9.500615 -0.898415 0.000008 0.000006 -3.009828 -5.000247 -7.998823 0.000179 -49.527331 78.934666 54.714917 49.524742 79.125754 -73.499802 -0.000000 -0.000002 -0.000001 12.994774 6.006232 0.539905 0.000002 0.000011 3.008530 -5.000183 7.999243 -0.000085 -74.171954 168.348618 11.923035 179.999964 0.000005 -2.355003 94.992666 1.142492 -2.838806 0.000001 0.000002 1.977761 63.865199 7.200610 1.749904 25.456901 -7.364424 -0.000008 -77.015847 165.972340 -2.287805 -0.000020 -0.000005 -1.231760 -87.179237 -4.967779 -0.128015 0.000001 0.000003 -1.944079 62.324766 -7.520247 -1.146289 28.282370 7.440646 1.644845 
51.608795 14.265783 57.790001 -10.019624 8.869031 -2.036736 -0.384993 -0.791355 -2.817528 3.191138 -1.594925 -5.635111 4.833188 -1.662241 -5.615731 34.347563 22.735456 4.001392 -17.818840 -18.397487 6.176552 51.173744 -80.226255 50.580741 95.417504 -61.444327 110.940167 0.000002 -0.000007 -0.000014 0.070956 -9.488224 -0.897749 0.000008 0.000005 -3.009830 -5.000253 -7.998823 0.000179 -49.454869 78.926087 54.640144 49.690736 79.116035 -73.653031 0.000000 -0.000003 -0.000002 12.961412 6.007422 0.539886 0.000003 0.000011 3.008529 -5.000183 7.999242 -0.000085 -74.180198 168.353139 11.925030 179.999964 0.000005 -2.355003 94.990992 1.145312 -2.838912 0.000001 0.000002 1.977901 63.868833 7.200580 1.749956 25.456899 -7.364424 -0.000008 -77.024043 165.980236 -2.290563 -0.000020 -0.000005 -1.231749 -87.181197 -4.969582 -0.129053 0.000000 0.000003 -1.944089 62.314930 -7.517549 -1.153105 28.284693 7.440644 1.646308 
